# xmcd
#
# Track frame offsets:
#	150
#	13839
#	34851
#	53354
#	66749
#	79267
#
# Disc length: 1212 seconds
#
# Revision: 1
# Processed by: cddbd v1.5.2PL0 Copyright (c) Steve Scherf et al.
# Submitted via: audiograbber 1.83.01
#
DISCID=4b04ba06
DTITLE=Imbecile - Beware Of The Buschmann
DYEAR=2001
DGENRE=Death
TTITLE0=Asshole
TTITLE1=Imbecility
TTITLE2=Brown Shit In The Toilet
TTITLE3=Mankind Despised
TTITLE4=Mentally Deranged
TTITLE5=Victim Earth
EXTD=
EXTT0=
EXTT1=
EXTT2=
EXTT3=
EXTT4=
EXTT5=
PLAYORDER=
